<svg width="51" height="50" viewBox="0 0 51 50" fill="none" xmlns="http://www.w3.org/2000/svg">
<rect width="50" height="50" rx="19" fill="#7752BE"/>
<path d="M34.4423 20.2926L35.0706 19.6643C35.1257 19.6101 35.1695 19.5454 35.1996 19.4742C35.2296 19.4029 35.2452 19.3264 35.2456 19.249C35.2459 19.1717 35.2309 19.095 35.2014 19.0235C35.172 18.952 35.1286 18.887 35.0739 18.8323C35.0193 18.7776 34.9543 18.7343 34.8828 18.7048C34.8112 18.6754 34.7346 18.6604 34.6572 18.6607C34.5799 18.661 34.5034 18.6766 34.4321 18.7067C34.3608 18.7367 34.2962 18.7806 34.2419 18.8357L33.588 19.4896C32.4841 18.5805 31.1745 17.9554 29.7734 17.6689V16.3203H30.3594C30.5148 16.3203 30.6638 16.2586 30.7737 16.1487C30.8836 16.0388 30.9453 15.8898 30.9453 15.7344V13.7812C30.9453 13.6258 30.8836 13.4768 30.7737 13.3669C30.6638 13.257 30.5148 13.1953 30.3594 13.1953H25.6719C25.5165 13.1953 25.3674 13.257 25.2576 13.3669C25.1477 13.4768 25.0859 13.6258 25.0859 13.7812V15.7344C25.0859 15.8898 25.1477 16.0388 25.2576 16.1487C25.3674 16.2586 25.5165 16.3203 25.6719 16.3203H26.2578V17.6689C24.8568 17.9554 23.5471 18.5805 22.4432 19.4896L21.7893 18.8357C21.7351 18.7806 21.6704 18.7367 21.5992 18.7067C21.5279 18.6766 21.4514 18.661 21.374 18.6607C21.2967 18.6604 21.22 18.6754 21.1485 18.7048C21.077 18.7343 21.012 18.7776 20.9573 18.8323C20.9026 18.887 20.8593 18.952 20.8298 19.0235C20.8004 19.095 20.7854 19.1717 20.7857 19.249C20.786 19.3264 20.8016 19.4029 20.8317 19.4742C20.8617 19.5454 20.9056 19.6101 20.9607 19.6643L21.589 20.2926C20.0696 21.9164 19.225 24.0575 19.2266 26.2812C19.2266 31.1275 23.1693 35.0703 28.0156 35.0703C32.8619 35.0703 36.8047 31.1275 36.8047 26.2812C36.8062 24.0575 35.9616 21.9164 34.4423 20.2926V20.2926ZM26.2578 14.3672H29.7734V15.1484H26.2578V14.3672ZM27.4297 16.3203H28.6016V17.5122C28.4078 17.4994 28.2126 17.4922 28.0156 17.4922C27.8187 17.4922 27.6234 17.4994 27.4297 17.5122V16.3203ZM28.0156 33.8984C23.8155 33.8984 20.3984 30.4814 20.3984 26.2812C20.3984 22.0811 23.8155 18.6641 28.0156 18.6641C32.2158 18.6641 35.6328 22.0811 35.6328 26.2812C35.6328 30.4814 32.2158 33.8984 28.0156 33.8984Z" fill="white"/>
<path d="M28.0156 19.8359C24.4617 19.8359 21.5703 22.7273 21.5703 26.2812C21.5703 29.8352 24.4617 32.7266 28.0156 32.7266C31.5696 32.7266 34.4609 29.8352 34.4609 26.2812C34.4609 22.7273 31.5696 19.8359 28.0156 19.8359ZM33.2563 25.6953H28.6016V21.0405C29.7897 21.1752 30.897 21.7088 31.7425 22.5543C32.588 23.3999 33.1217 24.5072 33.2563 25.6953V25.6953ZM28.0156 31.5547C26.6679 31.5545 25.3714 31.0384 24.3923 30.1123C23.4132 29.1861 22.8259 27.9203 22.7509 26.5747C22.6759 25.2291 23.119 23.9058 23.9891 22.8766C24.8592 21.8474 26.0903 21.1904 27.4297 21.0405V26.2812C27.4297 26.4367 27.4914 26.5857 27.6013 26.6956C27.7112 26.8055 27.8602 26.8672 28.0156 26.8672H33.2563C33.1107 28.1557 32.496 29.3455 31.5295 30.2099C30.5631 31.0744 29.3123 31.5531 28.0156 31.5547Z" fill="white"/>
<path d="M18.6406 22.1797H14.7344C14.579 22.1797 14.4299 22.2414 14.3201 22.3513C14.2102 22.4612 14.1484 22.6102 14.1484 22.7656C14.1484 22.921 14.2102 23.0701 14.3201 23.1799C14.4299 23.2898 14.579 23.3516 14.7344 23.3516H18.6406C18.796 23.3516 18.9451 23.2898 19.0549 23.1799C19.1648 23.0701 19.2266 22.921 19.2266 22.7656C19.2266 22.6102 19.1648 22.4612 19.0549 22.3513C18.9451 22.2414 18.796 22.1797 18.6406 22.1797V22.1797Z" fill="white"/>
<path d="M18.4453 27.4531C18.4453 27.2977 18.3836 27.1487 18.2737 27.0388C18.1638 26.9289 18.0148 26.8672 17.8594 26.8672H13.9531C13.7977 26.8672 13.6487 26.9289 13.5388 27.0388C13.4289 27.1487 13.3672 27.2977 13.3672 27.4531C13.3672 27.6085 13.4289 27.7576 13.5388 27.8674C13.6487 27.9773 13.7977 28.0391 13.9531 28.0391H17.8594C18.0148 28.0391 18.1638 27.9773 18.2737 27.8674C18.3836 27.7576 18.4453 27.6085 18.4453 27.4531Z" fill="white"/>
<path d="M18.25 29.2109H15.5156C15.3602 29.2109 15.2112 29.2727 15.1013 29.3826C14.9914 29.4924 14.9297 29.6415 14.9297 29.7969C14.9297 29.9523 14.9914 30.1013 15.1013 30.2112C15.2112 30.3211 15.3602 30.3828 15.5156 30.3828H18.25C18.4054 30.3828 18.5544 30.3211 18.6643 30.2112C18.7742 30.1013 18.8359 29.9523 18.8359 29.7969C18.8359 29.6415 18.7742 29.4924 18.6643 29.3826C18.5544 29.2727 18.4054 29.2109 18.25 29.2109Z" fill="white"/>
<path d="M18.4453 25.1094C18.4453 24.954 18.3836 24.8049 18.2737 24.6951C18.1638 24.5852 18.0148 24.5234 17.8594 24.5234H12.7812C12.6258 24.5234 12.4768 24.5852 12.3669 24.6951C12.257 24.8049 12.1953 24.954 12.1953 25.1094C12.1953 25.2648 12.257 25.4138 12.3669 25.5237C12.4768 25.6336 12.6258 25.6953 12.7812 25.6953H17.8594C18.0148 25.6953 18.1638 25.6336 18.2737 25.5237C18.3836 25.4138 18.4453 25.2648 18.4453 25.1094V25.1094Z" fill="white"/>
</svg>
