<svg width="50" height="50" viewBox="0 0 50 50" fill="none" xmlns="http://www.w3.org/2000/svg">
<rect width="50" height="50" rx="19" fill="#F03E3D"/>
<g clip-path="url(#clip0)">
<path d="M23.5359 29.9564C23.7268 29.7655 23.7268 29.4565 23.5359 29.2656C23.3447 29.0752 23.0351 29.0752 22.8439 29.2656C22.6531 29.4565 22.6531 29.7655 22.8439 29.9564C23.0351 30.1468 23.3447 30.1468 23.5359 29.9564Z" fill="white"/>
<path d="M21.2196 18.3696C21.2196 21.3303 23.6331 23.7393 26.5997 23.7393C29.5663 23.7393 31.9798 21.3303 31.9798 18.3696C31.9798 15.4088 29.5663 13 26.5997 13C23.6331 13 21.2196 15.4088 21.2196 18.3696V18.3696ZM31.0017 18.3696C31.0017 20.7921 29.0269 22.763 26.5997 22.763C24.1724 22.763 22.1977 20.7921 22.1977 18.3696C22.1977 15.9472 24.1724 13.9764 26.5997 13.9764C29.0269 13.9764 31.0017 15.9472 31.0017 18.3696Z" fill="white"/>
<path d="M17.658 37.8555C17.8476 38.0463 18.1563 38.0484 18.3483 37.8595L20.7196 35.528C21.1225 35.1259 21.245 34.5306 21.0678 34.0132L21.5779 33.5222C21.8525 33.2575 22.2141 33.1116 22.5963 33.1116H29.0983C30.2519 33.1116 31.3421 32.6694 32.1687 31.8666C32.2027 31.8336 31.9105 32.1772 36.6045 26.5779C37.3007 25.7559 37.1966 24.5214 36.3721 23.8258C35.5528 23.1367 34.3255 23.2357 33.6274 24.0437L30.7413 27.0042C30.3769 26.5566 29.8211 26.2775 29.2207 26.2775H23.7666C22.9905 25.9535 22.167 25.7894 21.3174 25.7894C18.9622 25.7894 16.9057 26.8751 15.802 28.9106C15.337 28.8227 14.8467 28.9631 14.4939 29.3152L12.1671 31.6442C11.9772 31.8344 11.9768 32.1421 12.1664 32.3328L17.658 37.8555ZM21.3172 26.7656C22.0663 26.7656 22.7906 26.9161 23.4704 27.2129C23.5323 27.24 23.599 27.2539 23.6665 27.2539H29.2207C29.751 27.2539 30.1989 27.6855 30.1989 28.2301C30.1989 28.7685 29.7602 29.2065 29.2207 29.2065H25.2301C24.9601 29.2065 24.7411 29.425 24.7411 29.6946C24.7411 29.9643 24.9601 30.1826 25.2301 30.1826H29.2207C30.2995 30.1826 31.177 29.3068 31.177 28.2301C31.177 28.1443 31.1709 28.0592 31.1598 27.9749C33.9517 25.1106 34.3454 24.7082 34.3622 24.6881C34.7108 24.2775 35.3296 24.2254 35.7413 24.5718C36.1533 24.9195 36.2055 25.5367 35.8559 25.9497L31.469 31.1838C30.8285 31.7976 29.9874 32.1354 29.0983 32.1354H22.5963C21.9591 32.1354 21.356 32.3786 20.8985 32.8197L20.4828 33.2201L16.6511 29.3961C17.5466 27.7193 19.227 26.7656 21.3172 26.7656V26.7656ZM15.1861 30.0051C15.3474 29.8441 15.595 29.8151 15.7917 29.9364C15.8763 29.9879 15.6333 29.767 20.028 34.1471C20.2235 34.3422 20.213 34.6531 20.0307 34.8351L18.0091 36.8227L13.2033 31.9897L15.1861 30.0051Z" fill="white"/>
<path d="M26.0128 15.4408V16.0128C25.4435 16.2142 25.0346 16.7569 25.0346 17.3933C25.0346 18.2007 25.6927 18.8578 26.5019 18.8578C26.7715 18.8578 26.9909 19.0768 26.9909 19.3459C26.9909 19.615 26.7715 19.834 26.5019 19.834C26.293 19.834 26.0673 19.703 25.8668 19.4647C25.6929 19.2584 25.3845 19.2318 25.1777 19.4052C24.9709 19.5788 24.9442 19.8866 25.1181 20.093C25.3795 20.4033 25.687 20.6196 26.0128 20.7287V21.2985C26.0128 21.5682 26.2319 21.7865 26.5019 21.7865C26.7719 21.7865 26.9909 21.5682 26.9909 21.2985V20.7264C27.5603 20.5248 27.9692 19.9822 27.9692 19.3459C27.9692 18.5383 27.311 17.8814 26.5019 17.8814C26.2322 17.8814 26.0128 17.6625 26.0128 17.3933C26.0128 17.1242 26.2322 16.9051 26.5019 16.9051C26.6752 16.9051 26.8581 16.9934 27.0309 17.1603C27.225 17.3478 27.5346 17.3426 27.7225 17.149C27.9104 16.9552 27.9052 16.6462 27.7112 16.4587C27.463 16.219 27.2145 16.0834 26.9909 16.0094V15.4408C26.9909 15.1711 26.7719 14.9525 26.5019 14.9525C26.2319 14.9525 26.0128 15.1711 26.0128 15.4408V15.4408Z" fill="white"/>
</g>
<defs>
<clipPath id="clip0">
<rect width="25" height="25" fill="white" transform="translate(12 13)"/>
</clipPath>
</defs>
</svg>
