<svg width="50" height="50" viewBox="0 0 50 50" fill="none" xmlns="http://www.w3.org/2000/svg">
<rect width="50" height="50" rx="19" fill="#FAB005"/>
<path d="M36.9843 25.4558L36.1492 22.9749L36.979 20.493C37.0212 20.3666 36.9758 20.2318 36.8599 20.1393L34.5832 18.3244L33.7482 15.8435C33.7056 15.7171 33.5819 15.6185 33.4236 15.5847L30.316 14.922L28.0392 13.1071C27.9233 13.0146 27.7544 12.9785 27.5963 13.0126L24.4898 13.6795L21.3822 13.0169C21.224 12.9832 21.0552 13.0193 20.9394 13.112L18.6669 14.9302L15.5604 15.5971C15.4022 15.6311 15.2787 15.7299 15.2364 15.8563L14.4066 18.3382L12.1341 20.1565C12.0183 20.249 11.9732 20.3839 12.0157 20.5103L12.8508 22.9907L12.3365 24.5292C12.2712 24.7246 12.4166 24.9253 12.6613 24.9775C12.906 25.0298 13.1572 24.9135 13.2226 24.7181L13.7686 23.0848C13.7894 23.0227 13.7894 22.9573 13.7685 22.8953L12.9702 20.5242L15.1424 18.7862C15.1994 18.7407 15.2402 18.6841 15.2609 18.622L16.0542 16.2495L19.0236 15.612C19.1013 15.5953 19.1723 15.5626 19.2291 15.5171L21.4014 13.7791L24.3719 14.4125C24.4496 14.4291 24.5315 14.429 24.6093 14.4124L27.5787 13.7749L29.755 15.5098C29.812 15.5552 29.8829 15.5878 29.9606 15.6044L32.9312 16.2379L33.7294 18.6093C33.7503 18.6714 33.7913 18.728 33.8483 18.7735L36.0246 20.5084L35.2314 22.8807C35.2106 22.9428 35.2106 23.0082 35.2315 23.0703L36.0298 25.4418L33.8575 27.1799C33.8006 27.2254 33.7598 27.282 33.739 27.3441L32.9458 29.7165L29.9765 30.3539C29.8987 30.3706 29.8277 30.4034 29.7709 30.4489L27.5986 32.1869L24.6283 31.5531C24.5504 31.5364 24.4685 31.5365 24.3906 31.5532L21.4213 32.1912L19.245 30.4563C19.188 30.4108 19.117 30.3782 19.0393 30.3616L18.4179 30.229C18.4175 30.2289 18.4171 30.2288 18.4167 30.2287C18.4163 30.2286 18.4158 30.2286 18.4154 30.2285L16.0689 29.7277L15.2706 27.3567C15.2496 27.2946 15.2087 27.238 15.1517 27.1926L13.6055 25.9602C13.4261 25.8173 13.1358 25.8175 12.957 25.9607C12.7781 26.1039 12.7784 26.3357 12.9577 26.4786L14.4169 27.6417L15.2519 30.122C15.2945 30.2483 15.4182 30.347 15.5764 30.3807L17.7363 30.8417L15.8852 36.3579C15.8418 36.4871 15.8902 36.6251 16.0114 36.7175C16.1326 36.8099 16.3073 36.8423 16.467 36.8017L19.4202 36.052L21.5081 37.8806C21.5961 37.9576 21.7197 38 21.847 38C21.8831 38 21.9195 37.9966 21.9554 37.9896C22.1183 37.958 22.2465 37.8579 22.2899 37.7286L24.0854 32.3772L24.5102 32.2859L24.9125 32.3717L26.7099 37.7286C26.7533 37.8578 26.8816 37.9579 27.0444 37.9896C27.0804 37.9966 27.1168 38 27.1528 38C27.2801 38 27.4037 37.9576 27.4917 37.8806L29.5798 36.0519L32.533 36.8017C32.6927 36.8423 32.8675 36.8099 32.9886 36.7175C33.1098 36.6251 33.1582 36.4872 33.1148 36.3579L32.3713 34.142C32.3058 33.9467 32.0543 33.8308 31.8097 33.8831C31.5651 33.9355 31.4199 34.1363 31.4855 34.3316L32.0119 35.9009L29.5777 35.2829C29.4072 35.2396 29.2206 35.2794 29.1 35.3851L27.3788 36.8925L25.9351 32.59L27.6177 32.9491C27.7758 32.9828 27.9448 32.9466 28.0606 32.854L30.3331 31.0357L30.3766 31.0264L30.95 32.7359C31.0048 32.8996 31.1901 33.0075 31.3925 33.0075C31.4319 33.0075 31.4718 33.0034 31.5115 32.9949C31.7561 32.9426 31.9013 32.7418 31.8357 32.5464L31.2621 30.8363L33.4395 30.3689C33.5978 30.3349 33.7212 30.2361 33.7635 30.1097L34.5933 27.6278L36.8659 25.8095C36.9817 25.717 37.0268 25.5821 36.9843 25.4558V25.4558ZM21.621 36.8924L19.9 35.3852C19.7793 35.2795 19.5928 35.2397 19.4223 35.2829L16.9881 35.9008L18.6224 31.0307L18.6842 31.0439L20.9608 32.8588C21.048 32.9282 21.1649 32.9658 21.2848 32.9658C21.3245 32.9658 21.3645 32.9617 21.4038 32.9533L23.0622 32.597L21.621 36.8924Z" fill="white"/>
<path d="M24.5001 16.0431C25.7749 16.0431 27.0026 16.2584 28.1492 16.6829C28.3791 16.7681 28.6516 16.6882 28.7581 16.5048C28.8647 16.3213 28.7648 16.1035 28.535 16.0185C27.2667 15.5488 25.9092 15.3107 24.5002 15.3107C20.1615 15.3107 16.3497 17.6425 15.2233 20.9831L15.2221 20.9866C15.2208 20.9904 15.2194 20.9941 15.2181 20.9979C15.0026 21.6422 14.8933 22.3101 14.8933 22.983C14.8933 24.7376 15.6149 26.3887 16.9801 27.7574L16.9828 27.7601L16.9869 27.7641C18.8215 29.6016 21.5592 30.6554 24.5001 30.6554C29.7973 30.6554 34.1069 27.2136 34.1069 22.983C34.1069 20.6943 32.841 18.5419 30.6337 17.0778C30.4389 16.9486 30.1498 16.9699 29.988 17.1255C29.8261 17.2811 29.8529 17.512 30.0478 17.6412C32.0446 18.9658 33.1898 20.9128 33.1898 22.9831C33.1898 26.8098 29.2917 29.923 24.5001 29.923C22.1717 29.923 19.9839 29.1927 18.3614 27.8957H21.1445C21.3978 27.8957 21.603 27.7317 21.603 27.5295V27.1144C22.0154 27.1588 22.3343 27.2434 22.6394 27.4302C22.9209 27.6025 23.2686 27.6974 23.6182 27.6974H28.6507C29.421 27.6974 30.0476 27.197 30.0476 26.5819C30.0476 26.3662 29.9705 26.1646 29.8373 25.9937C30.1945 25.7914 30.428 25.4587 30.428 25.0832C30.428 24.8558 30.3424 24.6442 30.1956 24.4676C30.5264 24.2634 30.7399 23.9435 30.7399 23.5845C30.7399 23.3582 30.655 23.1473 30.5094 22.9713C30.8424 22.7673 31.0575 22.4462 31.0575 22.0858C31.0575 21.4707 30.4309 20.9702 29.6607 20.9702H26.8645C27.1987 19.9995 27.1428 18.9852 26.6982 17.8212C26.5325 17.3876 26.0381 17.0963 25.4677 17.0963C25.1164 17.0963 24.7761 17.2131 24.5341 17.4166C24.2921 17.6201 24.1637 17.8977 24.1819 18.178C24.2659 19.4681 23.5481 19.896 22.4615 20.5435C22.1886 20.7062 21.8967 20.8804 21.6022 21.0806C21.5941 20.884 21.3926 20.7265 21.1444 20.7265H16.2801C17.4744 17.9461 20.7721 16.0431 24.5001 16.0431ZM23.01 21.1304C24.1399 20.457 25.2072 19.821 25.0978 18.14C25.0925 18.0581 25.1284 17.9803 25.1991 17.9208C25.2697 17.8614 25.3651 17.8287 25.4677 17.8287C25.6293 17.8287 25.7746 17.9135 25.8209 18.0349C26.2789 19.2339 26.273 20.2406 25.8022 21.2032C25.7471 21.3159 25.7652 21.443 25.8507 21.543C25.9361 21.6429 26.0779 21.7026 26.2293 21.7026H29.6606C29.9251 21.7026 30.1403 21.8745 30.1403 22.0858C30.1403 22.2971 29.9251 22.4689 29.6606 22.4689H28.4934C28.2401 22.4689 28.0348 22.6329 28.0348 22.8351C28.0348 23.0374 28.2401 23.2014 28.4934 23.2014H29.3429C29.6074 23.2014 29.8226 23.3732 29.8226 23.5845C29.8226 23.7957 29.6074 23.9676 29.3429 23.9676H28.4934C28.2401 23.9676 28.0348 24.1316 28.0348 24.3338C28.0348 24.5361 28.2401 24.7 28.4934 24.7H29.031C29.2955 24.7 29.5107 24.8719 29.5107 25.0832C29.5107 25.2945 29.2955 25.4663 29.031 25.4663H28.1814C27.9281 25.4663 27.7228 25.6303 27.7228 25.8326C27.7228 26.0348 27.9281 26.1988 28.1814 26.1988H28.6505C28.9151 26.1988 29.1303 26.3706 29.1303 26.5819C29.1303 26.7932 28.9151 26.9651 28.6505 26.9651H23.618C23.469 26.9651 23.3195 26.9238 23.1972 26.849C22.6779 26.5309 22.1335 26.4231 21.6028 26.3762V22.0893C22.0545 21.7003 22.5396 21.4109 23.01 21.1304ZM20.6859 22.0325V22.0325L20.6858 26.7985V26.7985L20.6859 27.1632H17.5636C16.4159 25.953 15.8103 24.5116 15.8103 22.983C15.8103 22.4681 15.8818 21.9567 16.0215 21.4588H20.6859V22.0325Z" fill="white"/>
</svg>
