<svg width="51" height="50" viewBox="0 0 51 50" fill="none" xmlns="http://www.w3.org/2000/svg">
<rect width="50" height="50" rx="19" fill="#7752BE"/>
<path d="M14.0675 34.37C14.1408 34.4432 14.2401 34.4844 14.3438 34.4844H19.4219C19.5255 34.4844 19.6248 34.4432 19.6981 34.37L20.5938 33.4743V36.8281C20.5938 36.9317 20.6349 37.0311 20.7082 37.1043C20.7814 37.1776 20.8808 37.2187 20.9844 37.2188H28.0156C28.1192 37.2187 28.2186 37.1776 28.2918 37.1043C28.3651 37.0311 28.4062 36.9317 28.4062 36.8281V33.4743L29.3019 34.37C29.3752 34.4432 29.4745 34.4844 29.5781 34.4844H34.6562C34.7599 34.4844 34.8592 34.4432 34.9325 34.37L36.1044 33.1981C36.1776 33.1248 36.2188 33.0255 36.2188 32.9219V31.75C36.2187 31.6464 36.1776 31.547 36.1043 31.4738C36.0311 31.4005 35.9317 31.3594 35.8281 31.3594H34.2656C34.2656 31.2558 34.2245 31.1564 34.1512 31.0832C34.078 31.0099 33.9786 30.9688 33.875 30.9688H33.0938C33.0294 30.9687 32.9661 30.9846 32.9094 31.015C32.8527 31.0453 32.8044 31.0892 32.7687 31.1427L32.2042 31.9896L30.2621 30.6949L29.3767 29.1453C28.9229 28.3472 28.1735 27.7595 27.2901 27.5092L26.4033 27.2558C26.69 26.8584 26.8441 26.3807 26.8438 25.8906V23.9375C26.8441 23.5142 26.7111 23.1015 26.4636 22.7581C26.2161 22.4146 25.8666 22.158 25.4649 22.0245L24.4399 21.6828C24.1791 21.5959 23.9014 21.5721 23.6296 21.6136C23.3578 21.655 23.0998 21.7605 22.8768 21.9212C22.6537 22.0819 22.4721 22.2934 22.3468 22.5381C22.2216 22.7828 22.1562 23.0538 22.1562 23.3287V25.8906C22.1559 26.3807 22.31 26.8584 22.5967 27.2558L21.7099 27.5092C20.8265 27.7595 20.0771 28.3472 19.6233 29.1453L18.7379 30.6949L16.7958 31.9896L16.2313 31.1427C16.1956 31.0892 16.1473 31.0453 16.0906 31.015C16.0339 30.9846 15.9706 30.9687 15.9062 30.9688H15.125C15.0214 30.9688 14.922 31.0099 14.8488 31.0832C14.7755 31.1564 14.7344 31.2558 14.7344 31.3594H13.1719C13.0683 31.3594 12.9689 31.4005 12.8957 31.4738C12.8224 31.547 12.7813 31.6464 12.7813 31.75V32.9219C12.7812 33.0255 12.8224 33.1248 12.8956 33.1981L14.0675 34.37ZM32.7031 32.6495L33.3028 31.75H33.4844V32.9219H34.2656V32.1406H35.4375V32.7601L34.4945 33.7031H32.7031V32.6495ZM22.9375 23.3287C22.9375 23.1776 22.9734 23.0286 23.0423 22.8941C23.1111 22.7596 23.211 22.6434 23.3336 22.555C23.4562 22.4667 23.598 22.4087 23.7474 22.3859C23.8968 22.3631 24.0495 22.3762 24.1928 22.4239L25.2179 22.7656C25.3999 22.8261 25.5653 22.9283 25.7009 23.0639C25.8365 23.1995 25.9386 23.3649 25.9992 23.5469H22.9375V23.3287ZM22.9375 24.3281H26.0625V25.8906C26.0625 26.305 25.8979 26.7025 25.6049 26.9955C25.3118 27.2885 24.9144 27.4531 24.5 27.4531C24.0856 27.4531 23.6882 27.2885 23.3951 26.9955C23.1021 26.7025 22.9375 26.305 22.9375 25.8906V24.3281ZM24.4296 29.7969H24.5704L25.2478 33.1841L24.5 33.932L23.7522 33.1841L24.4296 29.7969ZM24.0433 28.1894C24.3448 28.2494 24.6552 28.2494 24.9567 28.1894L24.6262 29.0156H24.3738L24.0433 28.1894ZM17.0781 32.7403L19.2479 31.2938C19.2984 31.2601 19.3403 31.2152 19.3704 31.1626L20.3016 29.5329C20.6545 28.9122 21.2375 28.4551 21.9245 28.2604L23.0964 27.9256L23.7035 29.4435L22.9451 33.2359C22.9325 33.299 22.9356 33.3641 22.9543 33.4257C22.9729 33.4872 23.0064 33.5432 23.0519 33.5887L24.2238 34.7606C24.297 34.8338 24.3964 34.875 24.5 34.875C24.6036 34.875 24.703 34.8338 24.7762 34.7606L25.9481 33.5887C25.9936 33.5432 26.0271 33.4872 26.0457 33.4257C26.0644 33.3641 26.0675 33.299 26.0549 33.2359L25.2965 29.4435L25.9036 27.9256L27.0754 28.2604C27.7625 28.4551 28.3454 28.9121 28.6984 29.5329L29.6296 31.1626C29.6597 31.2152 29.7016 31.2601 29.7521 31.2938L31.9219 32.7403V33.7031H29.7399L28.2919 32.255C28.2372 32.2004 28.1676 32.1632 28.0918 32.1481C28.0161 32.1331 27.9375 32.1408 27.8661 32.1704C27.7948 32.1999 27.7338 32.25 27.6908 32.3142C27.6479 32.3785 27.625 32.454 27.625 32.5312V36.4375H21.375V32.5312C21.375 32.454 21.3521 32.3785 21.3092 32.3142C21.2662 32.25 21.2052 32.1999 21.1339 32.1704C21.0625 32.1408 20.9839 32.1331 20.9082 32.1481C20.8324 32.1632 20.7628 32.2004 20.7081 32.255L19.2601 33.7031H17.0781V32.7403ZM13.5625 32.1406H14.7344V32.9219H15.5156V31.75H15.6972L16.2969 32.6495V33.7031H14.5055L13.5625 32.7601V32.1406Z" fill="white"/>
<path d="M13.1719 29.0156H14.3438V30.1875C14.3438 30.2911 14.3849 30.3905 14.4582 30.4637C14.5314 30.537 14.6308 30.5781 14.7344 30.5781H17.8594C17.963 30.5781 18.0623 30.537 18.1356 30.4637C18.2088 30.3905 18.25 30.2911 18.25 30.1875V29.0156H19.4219C19.5255 29.0156 19.6248 28.9745 19.6981 28.9012C19.7713 28.828 19.8125 28.7286 19.8125 28.625V27.0625C19.8119 26.5447 19.6059 26.0482 19.2398 25.6821C18.8736 25.3159 18.3772 25.11 17.8594 25.1094H14.7344C14.2166 25.11 13.7201 25.3159 13.354 25.6821C12.9878 26.0482 12.7818 26.5447 12.7812 27.0625V28.625C12.7813 28.7286 12.8224 28.828 12.8957 28.9012C12.9689 28.9745 13.0683 29.0156 13.1719 29.0156V29.0156ZM17.4688 29.7969H15.125V28.2344C15.125 27.9236 15.2485 27.6255 15.4682 27.4057C15.688 27.186 15.9861 27.0625 16.2969 27.0625C16.6077 27.0625 16.9057 27.186 17.1255 27.4057C17.3453 27.6255 17.4687 27.9236 17.4688 28.2344V29.7969ZM13.5625 27.0625C13.5629 26.7518 13.6864 26.4539 13.9061 26.2342C14.1258 26.0146 14.4237 25.891 14.7344 25.8906H17.8594C18.1701 25.891 18.4679 26.0146 18.6876 26.2342C18.9073 26.4539 19.0309 26.7518 19.0312 27.0625V28.2344H18.25C18.25 27.7164 18.0442 27.2196 17.6779 26.8533C17.3117 26.487 16.8149 26.2812 16.2969 26.2812C15.7789 26.2812 15.2821 26.487 14.9158 26.8533C14.5495 27.2196 14.3438 27.7164 14.3438 28.2344H13.5625V27.0625Z" fill="white"/>
<path d="M16.2969 29.0156C16.5126 29.0156 16.6875 28.8407 16.6875 28.625C16.6875 28.4093 16.5126 28.2344 16.2969 28.2344C16.0811 28.2344 15.9062 28.4093 15.9062 28.625C15.9062 28.8407 16.0811 29.0156 16.2969 29.0156Z" fill="white"/>
<path d="M32.3125 23.1562C32.0018 23.1566 31.7039 23.2802 31.4842 23.4999C31.2646 23.7196 31.141 24.0174 31.1406 24.3281V29.0156C31.141 29.3263 31.2646 29.6242 31.4842 29.8439C31.7039 30.0636 32.0018 30.1871 32.3125 30.1875H34.6562C34.9669 30.1871 35.2648 30.0636 35.4845 29.8439C35.7042 29.6242 35.8278 29.3263 35.8281 29.0156V24.3281C35.8278 24.0174 35.7042 23.7196 35.4845 23.4999C35.2648 23.2802 34.9669 23.1566 34.6562 23.1562H32.3125ZM35.0469 24.3281V29.0156C35.0468 29.1192 35.0056 29.2185 34.9323 29.2917C34.8591 29.3649 34.7598 29.4061 34.6562 29.4062H32.3125C32.2089 29.4061 32.1096 29.3649 32.0364 29.2917C31.9632 29.2185 31.922 29.1192 31.9219 29.0156V24.3281C31.922 24.2246 31.9632 24.1253 32.0364 24.052C32.1096 23.9788 32.2089 23.9376 32.3125 23.9375H32.5413L32.8175 24.2137C32.8908 24.287 32.9901 24.3281 33.0938 24.3281H33.875C33.9786 24.3281 34.078 24.287 34.1512 24.2137L34.4274 23.9375H34.6562C34.7598 23.9376 34.8591 23.9788 34.9323 24.052C35.0056 24.1253 35.0468 24.2246 35.0469 24.3281Z" fill="white"/>
<path d="M15.5156 24.3281H20.2031C20.5138 24.3278 20.8117 24.2042 21.0314 23.9845C21.2511 23.7648 21.3746 23.4669 21.375 23.1563V18.0111C21.3754 17.8572 21.3453 17.7046 21.2864 17.5624C21.2275 17.4202 21.1409 17.291 21.0318 17.1825L19.5363 15.687C19.4278 15.5778 19.2986 15.4913 19.1564 15.4324C19.0141 15.3735 18.8616 15.3433 18.7077 15.3438H15.5156C15.2049 15.3441 14.9071 15.4677 14.6874 15.6874C14.4677 15.9071 14.3441 16.2049 14.3438 16.5156V23.1563C14.3441 23.4669 14.4677 23.7648 14.6874 23.9845C14.9071 24.2042 15.2049 24.3278 15.5156 24.3281ZM19.4219 16.6774L20.0413 17.2969H19.4219V16.6774ZM15.125 16.5156C15.1251 16.4121 15.1663 16.3128 15.2395 16.2395C15.3128 16.1663 15.4121 16.1251 15.5156 16.125H18.6406V17.6875C18.6406 17.7911 18.6818 17.8905 18.755 17.9637C18.8283 18.037 18.9277 18.0781 19.0313 18.0781H20.5938V23.1563C20.5936 23.2598 20.5524 23.3591 20.4792 23.4323C20.406 23.5056 20.3067 23.5468 20.2031 23.5469H15.5156C15.4121 23.5468 15.3128 23.5056 15.2395 23.4323C15.1663 23.3591 15.1251 23.2598 15.125 23.1563V16.5156Z" fill="white"/>
<path d="M19.8125 21.9844H15.9062V22.7656H19.8125V21.9844Z" fill="white"/>
<path d="M19.8125 20.4219H17.4688V21.2031H19.8125V20.4219Z" fill="white"/>
<path d="M16.6875 20.4219H15.9062V21.2031H16.6875V20.4219Z" fill="white"/>
<path d="M19.8125 18.8594H18.6406V19.6406H19.8125V18.8594Z" fill="white"/>
<path d="M17.8594 18.8594H15.9062V19.6406H17.8594V18.8594Z" fill="white"/>
<path d="M17.8594 17.2969H15.9062V18.0781H17.8594V17.2969Z" fill="white"/>
<path d="M32.7635 14.8396L32.2593 13.9751C32.2291 13.9234 32.1876 13.8794 32.1378 13.8464C32.088 13.8133 32.0312 13.7921 31.972 13.7845C31.9127 13.7768 31.8524 13.7828 31.7959 13.8021C31.7393 13.8214 31.6879 13.8534 31.6456 13.8957L27.7842 17.7571L26.2784 18.51C26.2221 18.5381 26.1734 18.5795 26.1367 18.6306L26.1365 18.6305L26.1333 18.635L26.1328 18.6357L25.2128 19.9082C25.171 19.966 25.1459 20.0342 25.1401 20.1054C25.1343 20.1765 25.1481 20.2479 25.18 20.3117L25.7131 21.3778C25.7455 21.4427 25.7954 21.4973 25.8571 21.5354C25.9188 21.5736 25.9899 21.5938 26.0625 21.5938H27.3836L28.8381 24.5028C28.861 24.5487 28.8927 24.5897 28.9315 24.6233C28.9702 24.6569 29.0152 24.6826 29.0639 24.6988C29.1126 24.7151 29.164 24.7215 29.2152 24.7179C29.2664 24.7142 29.3163 24.7005 29.3622 24.6775L30.1434 24.2869C30.2083 24.2544 30.2629 24.2046 30.301 24.1429C30.3392 24.0812 30.3593 24.0101 30.3593 23.9375V21.9844C30.3594 21.9237 30.3452 21.8639 30.3181 21.8097L29.7473 20.6682L34.7636 19.235C34.8208 19.2186 34.8735 19.1894 34.9177 19.1496C34.9619 19.1097 34.9965 19.0603 35.0187 19.0051C35.0409 18.9499 35.0501 18.8903 35.0458 18.8309C35.0415 18.7716 35.0236 18.714 34.9936 18.6626L34.304 17.4803L34.361 17.4423C34.6901 17.2231 34.9213 16.8848 35.0062 16.4987C35.091 16.1125 35.0229 15.7084 34.816 15.3714C34.6092 15.0345 34.2798 14.7908 33.8971 14.6916C33.5143 14.5924 33.108 14.6454 32.7635 14.8396V14.8396ZM26.3039 20.8125L25.9847 20.174L26.392 19.6106L26.9929 20.8125H26.3039ZM26.9772 19.0341L27.8409 18.6022L28.6634 20.2472L27.7997 20.6791L26.9772 19.0341ZM29.5781 23.6961L29.3622 23.8041L28.1491 21.3778L29.0128 20.946L29.5781 22.0766V23.6961ZM29.3919 19.9572L28.4909 18.1553L31.8397 14.8064L34.0655 18.6219L29.3919 19.9572ZM34.1538 15.7865C34.2528 15.951 34.2845 16.1474 34.2424 16.3347C34.2003 16.5221 34.0876 16.686 33.9277 16.7923L33.9096 16.8043L33.1573 15.5145C33.3264 15.4226 33.5245 15.3996 33.7102 15.4502C33.8959 15.5009 34.0548 15.6214 34.1538 15.7865V15.7865Z" fill="white"/>
</svg>
