<svg width="520" height="420" viewBox="0 0 520 420" fill="none" xmlns="http://www.w3.org/2000/svg">
<path d="M342.857 278.029L320 285.728L420 419.998H454.286C454.286 357.275 408.72 303.146 342.857 278.029Z" fill="#111449"/>
<path d="M419.999 419.998C419.999 363.072 389.097 313.235 342.857 285.728L260 330.795L177.143 278.029C111.28 303.146 65.715 357.276 65.715 419.998H177.143L260 371.189L342.857 419.998H419.999Z" fill="#27467A"/>
<path d="M298.316 266.136H221.684C206.082 268.66 191.153 272.688 177.143 278.031V420H342.858V278.032C328.847 272.689 313.918 268.66 298.316 266.136Z" fill="#F0FEFF"/>
<path d="M298.318 266.135C285.929 264.133 273.118 263.077 260 263.077L248.571 304.615L260 420L294.286 388.174L277.143 304.616L298.318 266.135Z" fill="#FF0F47"/>
<path d="M221.683 266.135L242.857 304.615L225.715 388.173L260 420V263.077C246.882 263.077 234.071 264.134 221.683 266.135Z" fill="#FF6176"/>
<path d="M377.143 399.231C381.877 399.231 385.715 396.131 385.715 392.308C385.715 388.484 381.877 385.384 377.143 385.384C372.409 385.384 368.571 388.484 368.571 392.308C368.571 396.131 372.409 399.231 377.143 399.231Z" fill="#111449"/>
<path d="M377.143 371.539C381.877 371.539 385.715 368.44 385.715 364.616C385.715 360.792 381.877 357.692 377.143 357.692C372.409 357.692 368.571 360.792 368.571 364.616C368.571 368.44 372.409 371.539 377.143 371.539Z" fill="#111449"/>
<path d="M260 0L264.235 221.968L303.027 207.693L313.728 173.793C349.76 158.261 374.285 127.6 374.285 92.3073C374.285 41.3273 323.119 0 260 0Z" fill="#FF9900"/>
<path d="M276.659 182.605C312.846 173.76 340 136.695 340 92.3073C340 41.3273 304.183 0 260 0C196.881 0 145.715 41.3273 145.715 92.3073C145.715 127.6 170.24 158.261 206.274 173.793L216.974 207.693L264.236 221.968L276.659 182.605Z" fill="#FFE5D2"/>
<path d="M268.74 207.693L242.857 235.385H277.143C286.572 235.385 296.191 229.348 298.521 221.968L303.027 207.693H268.74Z" fill="#88ACB5"/>
<path d="M264.235 221.968L268.742 207.693H216.975L221.481 221.968C223.81 229.347 233.431 235.385 242.859 235.385C252.288 235.385 261.905 229.348 264.235 221.968Z" fill="#A7CBCF"/>
<path d="M271.429 186.924H248.572C244.824 186.924 241.51 184.956 240.391 182.066L211.82 108.22C210.679 105.272 212.093 102.072 215.285 100.374C218.478 98.6722 222.677 98.8896 225.578 100.898L239.998 110.881L254.419 100.898C257.63 98.6747 262.365 98.6747 265.576 100.898L279.999 110.882L294.423 100.898C297.326 98.8863 301.526 98.6747 304.716 100.374C307.908 102.072 309.322 105.273 308.181 108.22L279.61 182.066C278.491 184.956 275.177 186.924 271.429 186.924ZM254.873 173.078H265.128L283.175 126.432C280.284 127.364 276.897 126.972 274.42 125.258L259.997 115.274L245.576 125.258C243.101 126.971 239.717 127.364 236.826 126.434L254.873 173.078Z" fill="white"/>
<path d="M303.026 214.617H216.972C212.237 214.617 208.4 211.518 208.4 207.693C208.4 203.869 212.237 200.77 216.972 200.77H303.026C307.761 200.77 311.598 203.869 311.598 207.693C311.598 211.518 307.761 214.617 303.026 214.617Z" fill="#88ACB5"/>
</svg>
