<svg width="520" height="420" viewBox="0 0 520 420" fill="none" xmlns="http://www.w3.org/2000/svg">
<path d="M296.235 371.564C292.639 366.52 287.771 362.83 281.652 361.448C276.316 360.244 270.829 360.449 265.405 360.491L196.819 361.021C190.945 361.066 185.313 366.164 185.586 372.274C185.857 378.332 190.522 383.575 196.819 383.527C216.91 383.372 237.001 383.216 257.092 383.061C261.828 383.025 266.567 382.939 271.304 382.955C272.368 382.958 273.427 383.014 274.49 383.026C274.747 383.029 274.933 383.027 275.064 383.021C275.097 383.031 275.125 383.041 275.168 383.052C275.722 383.205 276.291 383.31 276.849 383.455C276.653 383.461 277.21 383.809 277.49 383.927C277.528 384.003 277.61 384.137 277.747 384.345C277.938 384.704 278.503 385.793 278.527 385.759C279.376 387.91 280.077 390.117 280.624 392.365C281.929 397.321 282.216 398.357 282.404 403.007C282.641 408.882 287.4 414.54 293.637 414.26C299.519 413.996 305.124 409.307 304.87 403.007C304.441 392.392 302.581 380.467 296.235 371.564Z" fill="#E6E6E6"/>
<path d="M200.85 396.958C199.562 389.137 198.299 381.311 196.985 373.495C195.653 365.566 192.931 358.305 186.772 353.101C185.126 351.711 183.42 350.413 181.706 349.119C181.103 348.664 180.502 348.208 179.906 347.743C179.871 347.715 179.848 347.698 179.817 347.674C179.752 347.617 179.673 347.55 179.567 347.461C177 345.284 174.52 343.011 172.157 340.594C170.058 338.448 168.052 336.21 166.137 333.881C165.658 333.299 165.186 332.713 164.72 332.12C164.639 332.018 164.207 331.459 163.923 331.094C163.658 330.729 163.175 330.07 163.093 329.954C162.549 329.183 162.014 328.404 161.488 327.618C157.911 322.248 154.813 316.573 152.23 310.657C151.974 310.071 151.724 309.481 151.48 308.887C151.415 308.706 151.33 308.473 151.218 308.164C150.697 306.73 150.178 305.298 149.702 303.848C148.691 300.767 147.822 297.64 147.095 294.468C146.735 292.902 146.411 291.328 146.124 289.745C145.975 288.932 145.836 288.116 145.707 287.299C145.686 287.164 145.56 286.282 145.485 285.784C145.43 285.284 145.328 284.398 145.315 284.261C145.232 283.437 145.159 282.613 145.096 281.788C144.952 279.931 144.855 278.071 144.804 276.208C144.718 272.897 144.777 269.586 144.982 266.276C145.098 264.416 145.264 262.561 145.469 260.709C145.481 260.595 145.49 260.505 145.499 260.423C145.512 260.341 145.526 260.247 145.543 260.13C145.694 259.106 145.853 258.085 146.031 257.066C146.705 253.198 147.581 249.368 148.657 245.592C149.166 243.807 149.719 242.035 150.315 240.279C150.581 239.499 150.856 238.722 151.139 237.948C151.12 237.998 151.969 235.827 151.98 235.754C155.346 227.786 160.853 220.522 160.86 211.471C160.865 205.343 155.69 199.473 149.627 199.756C146.604 199.87 143.744 201.155 141.648 203.34C139.553 205.526 138.386 208.441 138.394 211.471C138.394 211.609 138.393 211.726 138.393 211.84C138.336 212.031 138.289 212.19 138.247 212.331C137.59 213.76 136.786 215.118 136.065 216.512C134.092 220.326 132.408 224.266 130.808 228.263C128.189 234.772 126.184 241.513 124.82 248.398C121.855 263.481 121.625 278.976 124.141 294.141C128.496 320.735 142.859 346.192 162.826 363.304C164.559 364.789 166.334 366.224 168.126 367.63C168.868 368.212 169.615 368.783 170.367 369.35C170.722 369.618 172.193 370.781 171.546 370.218C172.938 371.408 173.524 372.006 173.881 372.883C173.933 373.085 174.003 373.359 174.099 373.734C174.351 374.723 174.59 375.709 174.789 376.711C176.527 385.469 177.735 394.373 179.187 403.186C180.185 409.242 187.627 413.184 193.005 411.369C199.265 409.256 201.92 403.447 200.85 396.958Z" fill="#E6E6E6"/>
<path d="M297.371 419.671C292.653 419.683 288.123 417.821 284.775 414.491C281.427 411.162 279.533 406.638 279.51 401.913V389.076C266.095 390.581 220.156 390.232 206.987 388.112V401.399C206.952 406.121 205.055 410.638 201.709 413.965C198.363 417.291 193.841 419.158 189.127 419.158C184.413 419.158 179.89 417.291 176.545 413.965C173.199 410.638 171.302 406.121 171.266 401.399V375.312C153.431 365.386 138.563 350.872 128.196 333.268C117.829 315.664 112.339 295.608 112.293 275.169C112.293 240.123 128.148 207.43 155.792 185.473C173.766 171.148 195.604 162.534 218.502 160.735C221.61 160.491 224.737 160.367 227.796 160.367C238.575 160.367 287.204 162.035 299.405 165.552L327.226 137.897C327.635 137.484 328.158 137.204 328.727 137.09C329.295 136.977 329.885 137.035 330.421 137.259C330.96 137.474 331.422 137.847 331.746 138.33C332.07 138.813 332.24 139.383 332.235 139.964V144.361L337.653 138.987C338.061 138.574 338.583 138.293 339.151 138.179C339.72 138.065 340.309 138.124 340.844 138.348C341.384 138.563 341.847 138.936 342.171 139.419C342.495 139.902 342.666 140.472 342.661 141.054V190.191C356.621 202.799 367.261 218.662 373.638 236.374C380.016 254.086 381.933 273.101 379.22 291.733C376.507 310.365 369.248 328.04 358.086 343.189C346.925 358.339 332.205 370.496 315.231 378.584V401.913C315.208 406.638 313.315 411.162 309.966 414.491C306.618 417.821 302.088 419.683 297.371 419.671V419.671ZM280.914 387.481V401.913C280.95 406.262 282.699 410.42 285.782 413.483C288.864 416.546 293.029 418.264 297.371 418.264C301.712 418.264 305.878 416.546 308.96 413.483C312.042 410.42 313.792 406.262 313.827 401.913V377.696L314.228 377.505C333.273 368.452 349.441 354.287 360.937 336.585C375.585 313.996 381.677 286.9 378.11 260.2C374.543 233.501 361.553 208.963 341.49 191.028L341.257 190.818V141.054C341.262 140.752 341.174 140.455 341.006 140.204C340.837 139.953 340.596 139.76 340.315 139.651C340.035 139.531 339.726 139.498 339.427 139.558C339.129 139.617 338.856 139.766 338.643 139.983L330.831 147.734V139.964C330.836 139.662 330.748 139.365 330.58 139.114C330.412 138.863 330.17 138.67 329.889 138.561C329.609 138.441 329.299 138.409 329 138.469C328.701 138.529 328.427 138.677 328.214 138.896L299.798 167.143L299.394 167.017C288.051 163.46 238.656 161.774 227.796 161.774C224.773 161.774 221.683 161.896 218.612 162.138C195.993 163.914 174.42 172.424 156.664 186.575C129.358 208.264 113.697 240.555 113.697 275.169C113.744 295.427 119.204 315.303 129.511 332.733C139.818 350.162 154.595 364.509 172.308 374.283L172.67 374.484V401.399C172.707 405.748 174.456 409.906 177.539 412.968C180.621 416.03 184.786 417.748 189.127 417.748C193.468 417.748 197.633 416.03 200.715 412.968C203.797 409.906 205.547 405.748 205.583 401.399V386.429L206.415 386.585C218.249 388.816 268.079 389.167 280.121 387.585L280.914 387.481Z" fill="#3F3D56"/>
<path d="M202.192 83.7768L124.446 107.183C121.973 107.93 119.897 109.631 118.675 111.91C117.453 114.19 117.184 116.862 117.927 119.34C118.671 121.818 120.365 123.899 122.64 125.126C124.914 126.353 127.581 126.626 130.055 125.884L198.092 105.397L199.517 104.968C199.806 97.6099 201.798 90.4202 205.338 83.9667C204.893 83.7665 204.419 83.6428 203.933 83.6009C203.347 83.5441 202.755 83.6038 202.192 83.7768Z" fill="#FF9900"/>
<path d="M128.711 130.874C127.679 130.871 126.674 130.544 125.837 129.938C125.001 129.332 124.376 128.478 124.051 127.497L119.189 112.801C118.986 112.187 118.906 111.539 118.953 110.894C118.999 110.25 119.173 109.62 119.462 109.043C119.752 108.465 120.152 107.95 120.641 107.527C121.129 107.104 121.696 106.782 122.309 106.579L185.586 85.5709C186.199 85.3674 186.845 85.2869 187.489 85.3338C188.133 85.3807 188.761 85.5541 189.338 85.8442C189.914 86.1343 190.428 86.5354 190.85 87.0245C191.272 87.5136 191.594 88.0812 191.797 88.6949L196.659 103.391C197.063 104.6 196.982 105.919 196.433 107.069C195.883 108.219 194.909 109.109 193.715 109.552C193.657 109.574 193.598 109.594 193.538 109.614L130.262 130.621C129.762 130.788 129.238 130.874 128.711 130.874Z" fill="#2F2E41"/>
<path d="M247.215 57.6768C234.444 57.6817 222.176 62.6648 213.008 71.5713C203.839 80.4777 198.49 92.6086 198.092 105.396C198.078 105.896 198.071 106.402 198.071 106.909C198.071 116.646 200.953 126.164 206.353 134.26C211.753 142.356 219.429 148.667 228.409 152.393C237.389 156.119 247.27 157.094 256.803 155.194C266.336 153.295 275.093 148.606 281.966 141.721C288.839 134.835 293.519 126.063 295.415 116.513C297.312 106.963 296.339 97.0643 292.619 88.0684C288.899 79.0724 282.6 71.3835 274.519 65.9738C266.437 60.5642 256.935 57.6768 247.215 57.6768V57.6768ZM247.215 154.734C234.558 154.721 222.423 149.678 213.473 140.711C204.522 131.745 199.488 119.589 199.475 106.909C199.475 106.254 199.489 105.607 199.517 104.967C199.898 95.5992 203.018 86.5495 208.491 78.9438C213.964 71.338 221.549 65.5117 230.301 62.1894C239.053 58.867 248.586 58.1951 257.717 60.2572C266.847 62.3194 275.17 67.0246 281.652 73.7879C288.135 80.5511 292.489 89.0739 294.175 98.2966C295.861 107.519 294.803 117.035 291.133 125.66C287.464 134.285 281.345 141.64 273.536 146.809C265.728 151.978 256.575 154.734 247.215 154.734V154.734Z" fill="#3F3D56"/>
<path d="M288.637 106.909C288.637 117.914 284.273 128.469 276.505 136.25C268.737 144.032 258.201 148.404 247.215 148.404C236.23 148.404 225.694 144.032 217.926 136.25C210.158 128.469 205.794 117.914 205.794 106.909C205.794 105.594 205.857 104.299 205.976 103.019C206.974 92.3983 212.018 82.5702 220.059 75.576C228.1 68.5818 238.521 64.9588 249.159 65.4593C259.796 65.9598 269.833 70.5454 277.184 78.2638C284.535 85.9823 288.637 96.2406 288.637 106.909V106.909Z" fill="#E6E6E6"/>
<path d="M259.551 109.665C258.547 108.343 257.226 107.296 255.711 106.62C253.842 105.831 251.911 105.196 249.939 104.721V93.426C252.971 93.8838 255.814 95.1823 258.146 97.1746L260.435 92.2866C259.119 91.1118 257.608 90.1764 255.97 89.5226C254.155 88.7863 252.249 88.2966 250.305 88.0668V82.3418H245.004V88.123C242.957 88.3533 240.983 89.0175 239.212 90.0712C237.612 91.0197 236.266 92.3421 235.287 93.9253C234.354 95.4705 233.87 97.2464 233.89 99.0525C233.799 101.01 234.365 102.941 235.498 104.538C236.541 105.921 237.918 107.015 239.5 107.717C241.398 108.53 243.362 109.181 245.369 109.665V120.489C241.792 120.219 238.384 118.857 235.603 116.586L233.315 121.481C234.869 122.769 236.637 123.773 238.538 124.449C240.621 125.196 242.797 125.65 245.004 125.799V131.475H250.305V125.694C253.249 125.372 256.01 124.103 258.175 122.079C259.128 121.163 259.881 120.059 260.386 118.836C260.892 117.613 261.138 116.299 261.109 114.975C261.197 113.081 260.649 111.211 259.551 109.665ZM245.369 103.526C244.078 103.133 242.878 102.488 241.838 101.627C241.426 101.259 241.1 100.805 240.884 100.297C240.668 99.7887 240.567 99.2388 240.588 98.6868C240.55 97.4341 241.009 96.2174 241.866 95.3038C242.815 94.3454 244.04 93.7084 245.369 93.4822V103.526ZM253.267 118.492C252.372 119.412 251.205 120.021 249.939 120.229V110.917C251.15 111.243 252.282 111.81 253.267 112.584C253.641 112.904 253.938 113.304 254.136 113.754C254.334 114.205 254.428 114.694 254.412 115.186C254.46 116.393 254.052 117.574 253.267 118.492Z" fill="#FFE5D2"/>
<path d="M130.967 190.437C129.882 190.435 128.828 190.074 127.968 189.411C127.108 188.748 126.49 187.819 126.211 186.768L123.564 176.732C123.233 175.471 123.414 174.129 124.069 173.001C124.724 171.874 125.798 171.053 127.057 170.718L210.561 148.613C211.821 148.284 213.16 148.468 214.285 149.125C215.41 149.782 216.229 150.858 216.564 152.119L218.806 160.622L218.386 160.655C196.97 162.323 176.479 170.101 159.337 183.07L159.216 183.129L132.214 190.275C131.807 190.382 131.388 190.437 130.967 190.437V190.437Z" fill="#2F2E41"/>
<path d="M117.138 240.011C107.342 238.561 97.9738 235.012 89.6713 229.607C85.5581 226.931 81.7503 223.811 78.3162 220.304C74.9267 216.84 71.6842 212.904 70.0053 208.292C68.3901 204.024 68.4733 199.298 70.2379 195.091C71.9784 190.909 75.3031 187.589 79.4832 185.86C83.6882 184.18 88.7688 184 92.8613 185.84C94.8114 186.696 96.499 188.057 97.7506 189.782C98.3325 190.578 98.7633 191.474 99.0216 192.426C99.2613 193.288 99.2831 194.196 99.085 195.069C98.8451 195.941 98.4218 196.751 97.8438 197.445C97.2658 198.139 96.5462 198.702 95.7335 199.094C93.9447 200.014 92.0066 200.606 90.0102 200.843C88.0022 201.117 85.1177 201.367 83.5035 199.752C83.1712 199.433 82.9098 199.047 82.7364 198.619C82.6151 198.292 82.5736 197.94 82.6154 197.594C82.5918 197.747 82.7128 197.262 82.7059 197.281C82.6803 197.353 82.5698 197.527 82.7269 197.259C82.776 197.17 82.8307 197.085 82.8906 197.004C82.8372 197.073 82.7201 197.188 82.9293 196.99C83.1022 196.801 83.3245 196.663 83.5712 196.593C83.6684 196.565 83.7669 196.542 83.8644 196.516C84.1121 196.448 83.6175 196.519 83.8709 196.511C83.9687 196.508 84.0676 196.51 84.1651 196.506C84.4136 196.495 83.9199 196.438 84.1581 196.498C84.2506 196.521 84.3422 196.544 84.4333 196.573C84.6313 196.635 84.293 196.427 84.4272 196.583C84.5845 196.766 84.2621 196.406 84.4409 196.582C84.5298 196.67 84.6136 196.762 84.692 196.86C85.002 197.166 85.42 197.338 85.8556 197.338C86.2912 197.338 86.7093 197.166 87.0193 196.86C87.3187 196.546 87.4858 196.128 87.4858 195.694C87.4858 195.26 87.3187 194.842 87.0193 194.528C85.3966 192.513 82.1912 193.011 80.5496 194.714C78.4561 196.886 79.2851 200.329 81.3215 202.224C83.6269 204.37 86.892 204.519 89.8575 204.159C92.3636 203.918 94.8059 203.227 97.0671 202.118C99.3137 201.012 101.071 199.11 101.998 196.781C102.417 195.538 102.567 194.22 102.44 192.914C102.312 191.609 101.909 190.345 101.257 189.207C98.6385 184.276 93.217 181.748 87.8583 181.31C85.0993 181.094 82.3249 181.427 79.6956 182.292C77.0662 183.157 74.6342 184.535 72.5401 186.348C68.504 189.988 66.0186 195.043 65.598 200.467C65.1302 206.09 67.3083 211.552 70.4838 216.09C73.8082 220.702 77.7753 224.812 82.264 228.295C91.0393 235.314 101.333 240.177 112.321 242.495C113.628 242.766 114.942 242.997 116.263 243.19C116.683 243.292 117.126 243.23 117.502 243.016C117.878 242.802 118.159 242.452 118.287 242.039C118.4 241.617 118.342 241.168 118.127 240.789C117.912 240.409 117.557 240.13 117.138 240.011L117.138 240.011Z" fill="#3F3D56"/>
<path d="M273.968 168.36C259.616 168.157 245.31 168.522 231.049 169.455C226.174 169.774 221.956 171.499 221.956 174.4C221.956 176.826 226.14 179.667 231.049 179.346C245.303 178.414 259.609 178.049 273.968 178.251C285.674 178.417 285.667 168.525 273.968 168.36Z" fill="#CCCCCC"/>
<path d="M368.353 310.3C376.419 310.076 386.457 309.796 394.19 304.137C396.492 302.382 398.384 300.145 399.733 297.581C401.082 295.017 401.854 292.189 401.997 289.294C402.155 284.825 400.543 280.924 397.458 278.313C393.419 274.894 387.521 274.092 381.165 275.963L387.751 227.752L382.916 227.089L375.175 283.767L379.212 281.911C383.892 279.76 390.316 278.666 394.309 282.046C395.289 282.929 396.053 284.027 396.54 285.255C397.028 286.482 397.227 287.806 397.121 289.122C397.003 291.277 396.422 293.38 395.42 295.29C394.417 297.199 393.016 298.87 391.311 300.189C385.293 304.592 377.292 305.16 368.217 305.415L368.353 310.3Z" fill="#3F3D56"/>
<path d="M354.987 231.911H328.707V236.799H354.987V231.911Z" fill="#3F3D56"/>
<path d="M142.859 212.919C141.689 212.915 140.559 212.494 139.671 211.731C138.783 210.969 138.195 209.914 138.012 208.757L136.408 198.501C136.208 197.212 136.526 195.895 137.294 194.84C138.062 193.785 139.216 193.079 140.503 192.875L225.825 179.482C227.113 179.282 228.427 179.601 229.48 180.37C230.533 181.139 231.238 182.295 231.441 183.584L233.045 193.84C233.245 195.13 232.927 196.446 232.159 197.501C231.392 198.556 230.238 199.263 228.951 199.466L143.628 212.858C143.374 212.898 143.117 212.918 142.859 212.919Z" fill="#2F2E41"/>
<path d="M107.548 92.7348C127.323 92.7348 143.354 76.6758 143.354 56.8659C143.354 37.0561 127.323 20.9971 107.548 20.9971C87.7738 20.9971 71.7433 37.0561 71.7433 56.8659C71.7433 76.6758 87.7738 92.7348 107.548 92.7348Z" fill="#FF9900"/>
<path d="M127.821 66.1467C128.965 65.7458 130.01 65.104 130.887 64.2646C131.466 63.6661 131.908 62.9479 132.182 62.1603C132.455 61.3726 132.553 60.5347 132.469 59.705C132.421 59.1137 132.236 58.5416 131.93 58.0336C131.624 57.5255 131.205 57.0952 130.706 56.7763C129.41 55.978 127.698 56.0082 125.969 56.811L125.77 42.8096L124.366 42.8296L124.6 59.2897L125.669 58.5875C126.908 57.7746 128.689 57.1851 129.97 57.9745C130.287 58.1835 130.552 58.4629 130.743 58.791C130.935 59.1191 131.048 59.487 131.074 59.8661C131.134 60.4842 131.059 61.1078 130.856 61.6944C130.653 62.281 130.326 62.817 129.898 63.2657C128.376 64.7786 126.123 65.2855 123.552 65.7492L123.8 67.1334C125.167 66.9255 126.513 66.5952 127.821 66.1467V66.1467Z" fill="#2F2E41"/>
<path d="M140.228 41.8271L132.751 42.9614L132.961 44.352L140.438 43.2176L140.228 41.8271Z" fill="#2F2E41"/>
<path d="M116.627 45.4066L109.149 46.541L109.36 47.9316L116.837 46.7972L116.627 45.4066Z" fill="#2F2E41"/>
<path d="M131.21 212.292C129.922 212.289 128.666 211.894 127.608 211.158C126.55 210.422 125.741 209.382 125.289 208.174L100.602 141.944C97.5845 133.821 97.9068 124.831 101.498 116.946C105.089 109.061 111.656 102.925 119.757 99.8843L139.83 92.3756C140.606 92.0833 141.433 91.9476 142.261 91.9764C143.09 92.0053 143.905 92.198 144.659 92.5435C145.411 92.8802 146.089 93.3637 146.653 93.9658C147.216 94.5679 147.654 95.2765 147.941 96.0501L193.671 182.546C193.968 183.326 194.108 184.157 194.083 184.991C194.058 185.826 193.869 186.647 193.526 187.408C193.183 188.169 192.693 188.854 192.085 189.424C191.476 189.995 190.761 190.439 189.981 190.731L133.418 211.89C132.712 212.155 131.964 212.291 131.21 212.292Z" fill="#2F2E41"/>
<path d="M133.74 94.6536L179.114 155.438L148.411 95.2916C148.158 94.5898 147.769 93.945 147.266 93.3939C146.764 92.8427 146.158 92.3962 145.483 92.0797C144.809 91.7632 144.078 91.5829 143.334 91.5492C142.59 91.5156 141.846 91.6291 141.146 91.8834L133.74 94.6536Z" fill="#E6E6E6"/>
<path d="M205.583 140.815L124.569 135.587C123.292 135.505 122.044 135.171 120.895 134.606C119.747 134.04 118.721 133.253 117.876 132.291C117.032 131.328 116.384 130.208 115.972 128.994C115.559 127.781 115.389 126.498 115.471 125.219C115.553 123.939 115.886 122.689 116.451 121.538C117.016 120.388 117.801 119.36 118.762 118.514C119.723 117.668 120.841 117.019 122.053 116.606C123.264 116.193 124.544 116.022 125.821 116.105L206.836 121.332C207.434 121.371 208.019 121.527 208.557 121.792C209.094 122.057 209.575 122.425 209.97 122.876C210.366 123.327 210.669 123.851 210.862 124.42C211.056 124.988 211.135 125.589 211.097 126.188L210.431 136.547C210.353 137.757 209.799 138.886 208.89 139.687C207.98 140.487 206.791 140.893 205.583 140.815Z" fill="#FF9900"/>
<path d="M183.935 144.167C183.828 144.167 183.721 144.163 183.613 144.156H183.613L117.089 139.864C116.445 139.822 115.815 139.654 115.236 139.369C114.657 139.083 114.139 138.687 113.713 138.201C113.287 137.716 112.961 137.151 112.753 136.539C112.544 135.927 112.459 135.28 112.5 134.634L113.638 116.94C113.679 116.295 113.847 115.665 114.132 115.084C114.417 114.504 114.813 113.986 115.298 113.559C115.782 113.132 116.346 112.805 116.957 112.597C117.568 112.388 118.214 112.303 118.858 112.344L185.383 116.637C186.683 116.722 187.896 117.32 188.756 118.301C189.617 119.281 190.053 120.563 189.971 121.866L188.834 139.56C188.771 140.508 188.437 141.418 187.87 142.18C187.304 142.943 186.53 143.525 185.642 143.858C185.096 144.062 184.518 144.167 183.935 144.167V144.167Z" fill="#2F2E41"/>
<path d="M107.138 33.0138C111.848 28.9554 118.317 32.5859 123.718 31.9504C128.886 31.3423 132.967 26.6984 134.01 21.7647C135.226 16.0088 132.244 10.2423 127.848 6.65356C123.034 2.72305 116.649 1.5947 110.598 2.32187C103.663 3.1553 97.3211 6.39358 91.6303 10.3105C86.1373 13.9741 81.086 18.2621 76.577 23.089C72.5393 27.5562 69.1184 32.881 68.026 38.8923C67.0333 44.3552 67.7913 50.409 71.0151 55.0369C72.7245 57.4089 75.0153 59.2995 77.6665 60.5264C80.4308 61.8862 83.3796 62.8584 86.0577 64.3958C90.107 66.7205 94.0426 71.5407 92.7741 76.5567C92.5022 77.6525 91.9655 78.6645 91.2114 79.5036C90.3052 80.5113 88.6708 79.1797 89.5793 78.1694C91.175 76.3949 91.1121 74.0283 90.2617 71.9097C89.2506 69.5224 87.46 67.5499 85.1834 66.3154C82.3801 64.7098 79.2851 63.7187 76.4119 62.2562C73.6617 60.9202 71.2745 58.9384 69.4534 56.4793C66.0146 51.6919 64.9859 45.4614 65.7658 39.6976C66.6098 33.4604 69.8088 27.7925 73.8189 23.0429C78.1831 17.8739 83.5438 13.4986 89.0203 9.56789C94.8966 5.35024 101.389 1.7845 108.573 0.494836C114.8 -0.623106 121.55 0.0651695 126.996 3.46487C132.079 6.63827 135.977 12.0972 136.364 18.1969C136.504 20.9723 135.902 23.7347 134.622 26.1998C133.341 28.665 131.428 30.7438 129.08 32.2224C126.67 33.6671 123.868 34.3174 121.069 34.0815C118.077 33.8896 115.082 32.9718 112.071 33.2266C110.709 33.3095 109.411 33.835 108.373 34.7236C107.344 35.6103 106.117 33.8932 107.138 33.0138V33.0138Z" fill="#2F2E41"/>
<path d="M519.164 420H0.835943C0.614659 419.999 0.402662 419.911 0.246417 419.754C0.0901715 419.597 0.00242615 419.384 0.00242615 419.163C0.00242615 418.941 0.0901715 418.728 0.246417 418.571C0.402662 418.414 0.614659 418.326 0.835943 418.325H519.164C519.386 418.325 519.598 418.413 519.755 418.57C519.912 418.728 520 418.941 520 419.163C520 419.385 519.912 419.598 519.755 419.755C519.598 419.912 519.386 420 519.164 420V420Z" fill="#3F3D56"/>
</svg>
