<svg width="550" height="420" viewBox="0 0 550 420" fill="none" xmlns="http://www.w3.org/2000/svg">
<g clip-path="url(#clip0)">
<path d="M479.305 1.16425e-08H6.78783C4.98805 0.00205953 3.26246 0.902669 1.98984 2.50414C0.717222 4.1056 0.00157887 6.27706 0 8.54184V411.458C0.00157887 413.723 0.717222 415.894 1.98984 417.496C3.26246 419.097 4.98805 419.998 6.78783 420H479.305C480.286 420 481.256 419.732 482.147 419.215C483.038 418.697 483.83 417.942 484.466 417.003C484.52 416.929 484.57 416.85 484.614 416.767C485.019 416.144 485.347 415.447 485.587 414.7C485.929 413.674 486.103 412.571 486.101 411.458V8.54184C486.099 6.27547 485.382 4.10278 484.108 2.50113C482.833 0.899482 481.106 -0.000118169 479.305 1.16425e-08V1.16425e-08ZM484.163 411.458C484.163 412.65 483.884 413.815 483.361 414.808C482.895 415.682 482.264 416.396 481.524 416.885C480.838 417.331 480.077 417.563 479.305 417.561H6.78783C5.50208 417.559 4.26944 416.915 3.36028 415.771C2.45112 414.627 1.93967 413.076 1.93811 411.458V8.54184C1.93967 6.9239 2.45112 5.3728 3.36028 4.22874C4.26944 3.08468 5.50208 2.44109 6.78783 2.43913H479.305C480.592 2.43892 481.826 3.0815 482.737 4.22574C483.648 5.36997 484.161 6.92232 484.163 8.54184V411.458Z" fill="#3F3D56"/>
<path d="M485.127 34.2378H0.967285V36.6797H485.127V34.2378Z" fill="#3F3D56"/>
<path d="M17.4617 25.6332C20.6769 25.6332 23.2833 22.3534 23.2833 18.3076C23.2833 14.2617 20.6769 10.9819 17.4617 10.9819C14.2465 10.9819 11.6401 14.2617 11.6401 18.3076C11.6401 22.3534 14.2465 25.6332 17.4617 25.6332Z" fill="#3F3D56"/>
<path d="M34.1988 25.6332C37.4139 25.6332 40.0203 22.3534 40.0203 18.3076C40.0203 14.2617 37.4139 10.9819 34.1988 10.9819C30.9836 10.9819 28.3772 14.2617 28.3772 18.3076C28.3772 22.3534 30.9836 25.6332 34.1988 25.6332Z" fill="#3F3D56"/>
<path d="M50.9358 25.6332C54.151 25.6332 56.7574 22.3534 56.7574 18.3076C56.7574 14.2617 54.151 10.9819 50.9358 10.9819C47.7207 10.9819 45.1143 14.2617 45.1143 18.3076C45.1143 22.3534 47.7207 25.6332 50.9358 25.6332Z" fill="#3F3D56"/>
<path d="M58.4238 187.826H41.2979C40.3692 187.824 39.4788 187.359 38.8221 186.533C38.1654 185.707 37.796 184.586 37.7949 183.418V161.867C37.796 160.698 38.1654 159.578 38.8221 158.751C39.4788 157.925 40.3692 157.46 41.2979 157.459H58.4238C59.3525 157.46 60.2429 157.925 60.8996 158.751C61.5563 159.578 61.9257 160.698 61.9268 161.867V183.418C61.9257 184.586 61.5563 185.707 60.8996 186.533C60.2429 187.359 59.3525 187.824 58.4238 187.826Z" fill="#FF9900"/>
<path d="M58.4238 243.668H41.2979C40.3692 243.667 39.4788 243.202 38.8221 242.376C38.1654 241.549 37.796 240.429 37.7949 239.26V217.71C37.796 216.541 38.1654 215.421 38.8221 214.594C39.4788 213.768 40.3692 213.303 41.2979 213.302H58.4238C59.3525 213.303 60.2429 213.768 60.8996 214.594C61.5563 215.421 61.9257 216.541 61.9268 217.71V239.26C61.9257 240.429 61.5563 241.549 60.8996 242.376C60.2429 243.202 59.3525 243.667 58.4238 243.668V243.668Z" fill="#3F3D56"/>
<path d="M58.4238 299.501H41.2979C40.3692 299.5 39.4788 299.035 38.8221 298.208C38.1654 297.382 37.796 296.262 37.7949 295.093V273.542C37.796 272.374 38.1654 271.253 38.8221 270.427C39.4788 269.6 40.3692 269.136 41.2979 269.134H58.4238C59.3525 269.136 60.2429 269.6 60.8996 270.427C61.5563 271.253 61.9257 272.374 61.9268 273.542V295.093C61.9257 296.262 61.5563 297.382 60.8996 298.208C60.2429 299.035 59.3525 299.5 58.4238 299.501Z" fill="#CCCCCC"/>
<path d="M170.52 177.052H88.0047C87.0757 177.052 86.1847 176.588 85.5277 175.761C84.8708 174.934 84.5017 173.813 84.5017 172.644C84.5017 171.475 84.8708 170.354 85.5277 169.527C86.1847 168.7 87.0757 168.236 88.0047 168.236H170.52C171.449 168.236 172.34 168.7 172.997 169.527C173.654 170.354 174.023 171.475 174.023 172.644C174.023 173.813 173.654 174.934 172.997 175.761C172.34 176.588 171.449 177.052 170.52 177.052V177.052Z" fill="#CCCCCC"/>
<path d="M170.52 232.884H88.0047C87.0757 232.884 86.1847 232.42 85.5277 231.593C84.8708 230.766 84.5017 229.645 84.5017 228.476C84.5017 227.307 84.8708 226.186 85.5277 225.359C86.1847 224.533 87.0757 224.068 88.0047 224.068H170.52C171.449 224.068 172.34 224.533 172.997 225.359C173.654 226.186 174.023 227.307 174.023 228.476C174.023 229.645 173.654 230.766 172.997 231.593C172.34 232.42 171.449 232.884 170.52 232.884V232.884Z" fill="#CCCCCC"/>
<path d="M170.52 288.727H88.0047C87.0757 288.727 86.1847 288.263 85.5277 287.436C84.8708 286.609 84.5017 285.488 84.5017 284.319C84.5017 283.15 84.8708 282.029 85.5277 281.202C86.1847 280.376 87.0757 279.911 88.0047 279.911H170.52C171.449 279.911 172.34 280.376 172.997 281.202C173.654 282.029 174.023 283.15 174.023 284.319C174.023 285.488 173.654 286.609 172.997 287.436C172.34 288.263 171.449 288.727 170.52 288.727V288.727Z" fill="#CCCCCC"/>
<path d="M453.695 168.305C454.077 168.525 454.445 168.783 454.794 169.076L489.709 150.324L490.955 138.75L504.906 138.643L504.082 165.188L457.998 180.524C457.901 180.927 457.785 181.322 457.65 181.707C456.983 183.496 455.912 184.998 454.57 186.023C453.227 187.048 451.674 187.551 450.106 187.47C448.537 187.388 447.022 186.725 445.752 185.563C444.482 184.402 443.513 182.794 442.966 180.942C442.42 179.09 442.321 177.076 442.681 175.153C443.041 173.23 443.845 171.484 444.991 170.133C446.137 168.783 447.575 167.889 449.124 167.564C450.672 167.239 452.263 167.497 453.695 168.305V168.305Z" fill="#FFB8B8"/>
<path d="M509.98 408.839L500.436 408.838L495.896 362.517L509.981 362.518L509.98 408.839Z" fill="#FFB8B8"/>
<path d="M493.619 405.419H512.024V420.002H482.03C482.03 418.087 482.33 416.19 482.912 414.421C483.495 412.652 484.348 411.044 485.424 409.69C486.501 408.336 487.778 407.262 489.184 406.529C490.59 405.796 492.097 405.419 493.619 405.419V405.419Z" fill="#2F2E41"/>
<path d="M547.096 405.457L537.598 406.634L529.47 361.096L543.488 359.358L547.096 405.457Z" fill="#FFB8B8"/>
<path d="M530.547 404.051L548.864 401.781L550 416.293L520.15 419.992C520.001 418.087 520.152 416.163 520.594 414.33C521.035 412.498 521.76 410.793 522.725 409.312C523.69 407.832 524.878 406.605 526.22 405.703C527.562 404.8 529.033 404.239 530.547 404.051V404.051Z" fill="#2F2E41"/>
<path d="M512.636 89.6159C523.195 89.6159 531.755 78.8443 531.755 65.5567C531.755 52.2692 523.195 41.4976 512.636 41.4976C502.077 41.4976 493.517 52.2692 493.517 65.5567C493.517 78.8443 502.077 89.6159 512.636 89.6159Z" fill="#FFB8B8"/>
<path d="M498.303 399.485C497.483 399.487 496.689 399.125 496.06 398.463C495.431 397.8 495.008 396.879 494.866 395.863C489.927 361.357 473.78 248.531 473.394 245.406C473.385 245.334 473.381 245.261 473.382 245.189V236.776C473.381 236.47 473.457 236.171 473.599 235.922L475.732 232.163C475.834 231.982 475.966 231.833 476.121 231.726C476.275 231.62 476.447 231.56 476.622 231.55C488.783 230.833 528.61 228.73 530.534 231.755C532.467 234.795 531.784 244.006 531.627 245.822L531.635 246.012L549.528 390.003C549.668 391.151 549.443 392.323 548.902 393.264C548.361 394.205 547.547 394.841 546.636 395.033L535.46 397.35C534.628 397.518 533.775 397.305 533.057 396.749C532.34 396.193 531.804 395.331 531.548 394.32C528.092 380.421 516.502 333.667 512.485 315.576C512.46 315.461 512.402 315.362 512.323 315.297C512.244 315.232 512.149 315.205 512.056 315.222C511.962 315.238 511.877 315.297 511.815 315.387C511.754 315.478 511.72 315.593 511.722 315.712C511.922 332.957 512.407 376.958 512.575 392.154L512.593 393.791C512.6 394.899 512.277 395.97 511.687 396.793C511.097 397.616 510.283 398.13 509.407 398.234L498.63 399.467C498.521 399.479 498.411 399.485 498.303 399.485Z" fill="#2F2E41"/>
<path d="M500.502 99.076C497.165 101.572 495.169 106.159 494.023 110.826C491.902 119.467 490.625 128.401 490.221 137.431L489.01 164.467L474.021 236.142C487.012 249.974 494.506 246.831 511.994 235.516C529.482 224.202 531.48 239.289 531.48 239.289L534.977 178.302L539.974 111.66C538.852 109.96 537.583 108.425 536.189 107.081C531.571 102.562 526.198 99.4213 520.475 97.895C514.752 96.3686 508.828 96.4967 503.15 98.2696L500.502 99.076Z" fill="#B3B3B3"/>
<path d="M495.633 182.782C496.037 182.973 496.427 183.203 496.802 183.471L531.324 161.728L531.897 149.948L546.138 148.712L546.901 175.565L500.766 194.764C500.389 196.797 499.53 198.638 498.301 200.041C497.073 201.445 495.534 202.344 493.89 202.62C492.245 202.897 490.573 202.536 489.095 201.587C487.617 200.638 486.404 199.146 485.617 197.308C484.83 195.47 484.506 193.374 484.688 191.299C484.87 189.224 485.55 187.268 486.638 185.691C487.725 184.114 489.168 182.991 490.775 182.472C492.382 181.952 494.077 182.06 495.633 182.782H495.633Z" fill="#FFB8B8"/>
<path d="M539.724 111.968C548.218 115.74 549.714 156.61 549.714 156.61C539.721 149.694 527.729 161.012 527.729 161.012C527.729 161.012 525.231 150.323 522.233 136.491C521.328 132.6 521.22 128.485 521.919 124.527C522.618 120.57 524.101 116.899 526.23 113.857C526.23 113.857 531.23 108.193 539.724 111.968Z" fill="#B3B3B3"/>
<path d="M529.78 71.9172C527.398 69.5189 524.148 73.8781 524.148 73.8781L522.242 52.2948C522.242 52.2948 510.331 54.0902 502.708 51.6956C495.085 49.3011 493.894 60.3894 493.894 60.3894C493.501 55.9104 493.421 51.3965 493.656 46.8999C494.132 41.504 500.326 36.1082 511.284 32.5107C522.242 28.9132 527.959 44.5016 527.959 44.5016C535.582 49.2973 532.162 74.3156 529.78 71.9172Z" fill="#2F2E41"/>
<path d="M457.574 230.44C457.697 227.847 457.767 225.236 457.767 222.603C457.767 188.31 446.941 155.421 427.67 131.172C408.4 106.923 382.264 93.3003 355.012 93.3003V230.44H457.574Z" fill="#FFE5D2"/>
<path d="M347.227 242.201V105.062C327.17 105.061 307.55 112.447 290.788 126.309C274.026 140.171 260.855 159.904 252.898 183.074C244.942 206.243 242.548 231.836 246.012 256.697C249.477 281.558 258.647 304.599 272.394 322.98C286.14 341.361 303.861 354.277 323.371 360.136C342.881 365.995 363.327 364.54 382.188 355.952C401.049 347.363 417.5 332.016 429.513 311.803C441.525 291.59 448.574 267.395 449.789 242.201H347.227Z" fill="#3F3D56"/>
</g>
<defs>
<clipPath id="clip0">
<rect width="550" height="420" fill="white"/>
</clipPath>
</defs>
</svg>
