<svg width="75" height="75" viewBox="0 0 75 75" fill="none" xmlns="http://www.w3.org/2000/svg">
<rect x="1.45833" y="1.45833" width="72.0833" height="72.0833" rx="12.3958" fill="#FF9900"/>
<rect x="1.45833" y="1.45833" width="72.0833" height="72.0833" rx="12.3958" stroke="white" stroke-width="2.91667"/>
<rect x="1.45833" y="1.45833" width="72.0833" height="72.0833" rx="12.3958" stroke="#FF9900" stroke-width="2.91667"/>
<path d="M33.0988 20.0518V23.4596C26.5177 24.6596 21.79 27.8924 21.79 31.6843C21.79 36.4944 29.3984 40.409 38.7522 40.409C41.8693 40.409 44.4055 41.7135 44.4055 43.3168C44.4055 44.9202 41.8693 46.2246 38.7522 46.2246C36.3375 46.2246 33.7285 45.444 31.411 44.0247C29.4007 42.7952 25.835 42.6373 23.4447 43.6702C21.0543 44.7043 20.7451 46.5383 22.7554 47.7678C25.7776 49.6166 29.3322 50.9051 33.0988 51.5551V54.9493C33.0988 56.5561 35.6306 57.8571 38.7522 57.8571C41.8737 57.8571 44.4055 56.5561 44.4055 54.9493V51.5415C50.9866 50.3404 55.7143 47.1076 55.7143 43.3168C55.7143 38.5056 48.1059 34.5922 38.7522 34.5922C35.635 34.5922 33.0988 33.2877 33.0988 31.6843C33.0988 30.081 35.635 28.7753 38.7522 28.7753C40.7559 28.7753 42.8701 29.3015 44.8672 30.2957C47.1117 31.4127 50.6906 31.3821 52.8622 30.2287C55.0339 29.0742 54.9742 27.2334 52.7319 26.1164C49.8622 24.688 46.9902 23.8801 44.4055 23.4392V20.0518C44.4055 18.4451 41.8737 17.1429 38.7522 17.1429C35.6306 17.1429 33.0988 18.4451 33.0988 20.0518V20.0518Z" fill="white"/>
</svg>
